<mxfile host="Electron" modified="2023-06-04T10:41:32.828Z" agent="Mozilla/5.0 (Windows NT 10.0; Win64; x64) AppleWebKit/537.36 (KHTML, like Gecko) draw.io/21.2.8 Chrome/112.0.5615.165 Electron/24.2.0 Safari/537.36" etag="zS_nsmvtX5E8kXZLiGU0" version="21.2.8" type="device" pages="2">
  <diagram name="关键路径" id="9yV_wB3i_ogOqetkwW7K">
    <mxGraphModel dx="941" dy="644" grid="1" gridSize="10" guides="1" tooltips="1" connect="1" arrows="1" fold="1" page="1" pageScale="1" pageWidth="827" pageHeight="1169" math="0" shadow="0">
      <root>
        <mxCell id="0" />
        <mxCell id="1" parent="0" />
        <mxCell id="F32oVlwlz_N8rgjbwMXW-4" value="3" style="edgeStyle=orthogonalEdgeStyle;rounded=0;orthogonalLoop=1;jettySize=auto;html=1;exitX=1;exitY=0.5;exitDx=0;exitDy=0;entryX=0;entryY=0.5;entryDx=0;entryDy=0;strokeWidth=2;fontSize=16;" parent="1" source="F32oVlwlz_N8rgjbwMXW-1" target="F32oVlwlz_N8rgjbwMXW-3" edge="1">
          <mxGeometry relative="1" as="geometry">
            <Array as="points">
              <mxPoint x="120" y="210" />
              <mxPoint x="120" y="210" />
            </Array>
          </mxGeometry>
        </mxCell>
        <mxCell id="F32oVlwlz_N8rgjbwMXW-1" value="" style="ellipse;whiteSpace=wrap;html=1;aspect=fixed;fillColor=#ffe6cc;strokeColor=#d79b00;" parent="1" vertex="1">
          <mxGeometry y="170" width="80" height="80" as="geometry" />
        </mxCell>
        <mxCell id="F32oVlwlz_N8rgjbwMXW-6" value="2" style="edgeStyle=orthogonalEdgeStyle;rounded=0;orthogonalLoop=1;jettySize=auto;html=1;exitX=1;exitY=0.5;exitDx=0;exitDy=0;fontSize=16;strokeWidth=2;" parent="1" source="F32oVlwlz_N8rgjbwMXW-3" target="F32oVlwlz_N8rgjbwMXW-5" edge="1">
          <mxGeometry relative="1" as="geometry" />
        </mxCell>
        <mxCell id="F32oVlwlz_N8rgjbwMXW-3" value="" style="ellipse;whiteSpace=wrap;html=1;aspect=fixed;fillColor=#ffe6cc;strokeColor=#d79b00;" parent="1" vertex="1">
          <mxGeometry x="150" y="170" width="80" height="80" as="geometry" />
        </mxCell>
        <mxCell id="F32oVlwlz_N8rgjbwMXW-8" value="6" style="edgeStyle=orthogonalEdgeStyle;rounded=0;orthogonalLoop=1;jettySize=auto;html=1;exitX=1;exitY=0.5;exitDx=0;exitDy=0;strokeWidth=2;fontSize=16;" parent="1" source="F32oVlwlz_N8rgjbwMXW-5" target="F32oVlwlz_N8rgjbwMXW-7" edge="1">
          <mxGeometry relative="1" as="geometry" />
        </mxCell>
        <mxCell id="F32oVlwlz_N8rgjbwMXW-14" value="3" style="edgeStyle=orthogonalEdgeStyle;rounded=0;orthogonalLoop=1;jettySize=auto;html=1;fontSize=16;strokeWidth=2;" parent="1" source="F32oVlwlz_N8rgjbwMXW-5" target="F32oVlwlz_N8rgjbwMXW-12" edge="1">
          <mxGeometry relative="1" as="geometry" />
        </mxCell>
        <mxCell id="F32oVlwlz_N8rgjbwMXW-23" value="2" style="edgeStyle=orthogonalEdgeStyle;rounded=0;orthogonalLoop=1;jettySize=auto;html=1;exitX=0.5;exitY=0;exitDx=0;exitDy=0;strokeWidth=2;fontSize=16;" parent="1" source="F32oVlwlz_N8rgjbwMXW-5" target="F32oVlwlz_N8rgjbwMXW-22" edge="1">
          <mxGeometry relative="1" as="geometry" />
        </mxCell>
        <mxCell id="F32oVlwlz_N8rgjbwMXW-5" value="" style="ellipse;whiteSpace=wrap;html=1;aspect=fixed;fillColor=#ffe6cc;strokeColor=#d79b00;" parent="1" vertex="1">
          <mxGeometry x="310" y="170" width="80" height="80" as="geometry" />
        </mxCell>
        <mxCell id="F32oVlwlz_N8rgjbwMXW-11" value="5" style="edgeStyle=orthogonalEdgeStyle;rounded=0;orthogonalLoop=1;jettySize=auto;html=1;exitX=1;exitY=0.5;exitDx=0;exitDy=0;entryX=0;entryY=0.5;entryDx=0;entryDy=0;fontSize=16;strokeWidth=2;" parent="1" source="F32oVlwlz_N8rgjbwMXW-7" target="F32oVlwlz_N8rgjbwMXW-10" edge="1">
          <mxGeometry relative="1" as="geometry" />
        </mxCell>
        <mxCell id="F32oVlwlz_N8rgjbwMXW-7" value="" style="ellipse;whiteSpace=wrap;html=1;aspect=fixed;fillColor=#ffe6cc;strokeColor=#d79b00;" parent="1" vertex="1">
          <mxGeometry x="470" y="170" width="80" height="80" as="geometry" />
        </mxCell>
        <mxCell id="F32oVlwlz_N8rgjbwMXW-10" value="" style="ellipse;whiteSpace=wrap;html=1;aspect=fixed;fillColor=#ffe6cc;strokeColor=#d79b00;" parent="1" vertex="1">
          <mxGeometry x="630" y="170" width="80" height="80" as="geometry" />
        </mxCell>
        <mxCell id="F32oVlwlz_N8rgjbwMXW-16" value="2" style="rounded=0;orthogonalLoop=1;jettySize=auto;html=1;exitX=1;exitY=0.5;exitDx=0;exitDy=0;entryX=0;entryY=0.5;entryDx=0;entryDy=0;strokeWidth=2;fontSize=16;" parent="1" source="F32oVlwlz_N8rgjbwMXW-12" target="F32oVlwlz_N8rgjbwMXW-15" edge="1">
          <mxGeometry relative="1" as="geometry" />
        </mxCell>
        <mxCell id="F32oVlwlz_N8rgjbwMXW-18" value="1" style="rounded=0;orthogonalLoop=1;jettySize=auto;html=1;exitX=1;exitY=0.5;exitDx=0;exitDy=0;entryX=0;entryY=0.5;entryDx=0;entryDy=0;fontSize=16;strokeWidth=2;" parent="1" source="F32oVlwlz_N8rgjbwMXW-12" target="F32oVlwlz_N8rgjbwMXW-17" edge="1">
          <mxGeometry relative="1" as="geometry" />
        </mxCell>
        <mxCell id="F32oVlwlz_N8rgjbwMXW-12" value="" style="ellipse;whiteSpace=wrap;html=1;aspect=fixed;" parent="1" vertex="1">
          <mxGeometry x="310" y="330" width="80" height="80" as="geometry" />
        </mxCell>
        <mxCell id="F32oVlwlz_N8rgjbwMXW-13" style="edgeStyle=orthogonalEdgeStyle;rounded=0;orthogonalLoop=1;jettySize=auto;html=1;exitX=0.5;exitY=1;exitDx=0;exitDy=0;" parent="1" source="F32oVlwlz_N8rgjbwMXW-3" target="F32oVlwlz_N8rgjbwMXW-3" edge="1">
          <mxGeometry relative="1" as="geometry" />
        </mxCell>
        <mxCell id="F32oVlwlz_N8rgjbwMXW-21" value="2" style="rounded=0;orthogonalLoop=1;jettySize=auto;html=1;exitX=1;exitY=0.5;exitDx=0;exitDy=0;entryX=0.5;entryY=1;entryDx=0;entryDy=0;strokeWidth=2;fontSize=16;" parent="1" source="F32oVlwlz_N8rgjbwMXW-15" target="F32oVlwlz_N8rgjbwMXW-10" edge="1">
          <mxGeometry relative="1" as="geometry" />
        </mxCell>
        <mxCell id="F32oVlwlz_N8rgjbwMXW-15" value="" style="ellipse;whiteSpace=wrap;html=1;aspect=fixed;" parent="1" vertex="1">
          <mxGeometry x="470" y="290" width="80" height="80" as="geometry" />
        </mxCell>
        <mxCell id="F32oVlwlz_N8rgjbwMXW-20" value="4" style="rounded=0;orthogonalLoop=1;jettySize=auto;html=1;exitX=1;exitY=0.5;exitDx=0;exitDy=0;strokeWidth=2;fontSize=16;entryX=0.5;entryY=1;entryDx=0;entryDy=0;" parent="1" source="F32oVlwlz_N8rgjbwMXW-17" target="F32oVlwlz_N8rgjbwMXW-10" edge="1">
          <mxGeometry relative="1" as="geometry" />
        </mxCell>
        <mxCell id="F32oVlwlz_N8rgjbwMXW-17" value="" style="ellipse;whiteSpace=wrap;html=1;aspect=fixed;" parent="1" vertex="1">
          <mxGeometry x="470" y="410" width="80" height="80" as="geometry" />
        </mxCell>
        <mxCell id="F32oVlwlz_N8rgjbwMXW-24" value="7" style="rounded=0;orthogonalLoop=1;jettySize=auto;html=1;exitX=1;exitY=0.5;exitDx=0;exitDy=0;strokeWidth=2;fontSize=16;" parent="1" source="F32oVlwlz_N8rgjbwMXW-22" target="F32oVlwlz_N8rgjbwMXW-10" edge="1">
          <mxGeometry relative="1" as="geometry" />
        </mxCell>
        <mxCell id="F32oVlwlz_N8rgjbwMXW-22" value="" style="ellipse;whiteSpace=wrap;html=1;aspect=fixed;" parent="1" vertex="1">
          <mxGeometry x="310" y="10" width="80" height="80" as="geometry" />
        </mxCell>
        <mxCell id="F32oVlwlz_N8rgjbwMXW-27" value="2&lt;br&gt;TE：3&lt;br&gt;TL：3" style="text;html=1;align=center;verticalAlign=middle;resizable=0;points=[];autosize=1;strokeColor=none;fillColor=none;fontSize=16;fontFamily=Helvetica;fontColor=default;" parent="1" vertex="1">
          <mxGeometry x="155" y="175" width="70" height="70" as="geometry" />
        </mxCell>
        <mxCell id="F32oVlwlz_N8rgjbwMXW-28" value="1&lt;br&gt;TE：0&lt;br&gt;TL：0" style="text;html=1;align=center;verticalAlign=middle;resizable=0;points=[];autosize=1;strokeColor=none;fillColor=none;fontSize=16;fontFamily=Helvetica;fontColor=default;" parent="1" vertex="1">
          <mxGeometry x="5" y="175" width="70" height="70" as="geometry" />
        </mxCell>
        <mxCell id="F32oVlwlz_N8rgjbwMXW-29" value="3&lt;br&gt;TE：5&lt;br&gt;TL：5" style="text;html=1;align=center;verticalAlign=middle;resizable=0;points=[];autosize=1;strokeColor=none;fillColor=none;fontSize=16;fontFamily=Helvetica;fontColor=default;" parent="1" vertex="1">
          <mxGeometry x="315" y="175" width="70" height="70" as="geometry" />
        </mxCell>
        <mxCell id="F32oVlwlz_N8rgjbwMXW-30" value="4&lt;br&gt;TE：7&lt;br&gt;TL：9" style="text;html=1;align=center;verticalAlign=middle;resizable=0;points=[];autosize=1;strokeColor=none;fillColor=none;fontSize=16;fontFamily=Helvetica;fontColor=default;" parent="1" vertex="1">
          <mxGeometry x="315" y="15" width="70" height="70" as="geometry" />
        </mxCell>
        <mxCell id="F32oVlwlz_N8rgjbwMXW-31" value="5&lt;br&gt;TE：11&lt;br&gt;TL：11" style="text;html=1;align=center;verticalAlign=middle;resizable=0;points=[];autosize=1;strokeColor=none;fillColor=none;fontSize=16;fontFamily=Helvetica;fontColor=default;" parent="1" vertex="1">
          <mxGeometry x="470" y="175" width="80" height="70" as="geometry" />
        </mxCell>
        <mxCell id="F32oVlwlz_N8rgjbwMXW-32" value="7&lt;br&gt;TE：10&lt;br&gt;TL：14" style="text;html=1;align=center;verticalAlign=middle;resizable=0;points=[];autosize=1;strokeColor=none;fillColor=none;fontSize=16;fontFamily=Helvetica;fontColor=default;" parent="1" vertex="1">
          <mxGeometry x="470" y="295" width="80" height="70" as="geometry" />
        </mxCell>
        <mxCell id="F32oVlwlz_N8rgjbwMXW-33" value="6&lt;br&gt;TE：8&lt;br&gt;TL：11" style="text;html=1;align=center;verticalAlign=middle;resizable=0;points=[];autosize=1;strokeColor=none;fillColor=none;fontSize=16;fontFamily=Helvetica;fontColor=default;" parent="1" vertex="1">
          <mxGeometry x="315" y="335" width="70" height="70" as="geometry" />
        </mxCell>
        <mxCell id="F32oVlwlz_N8rgjbwMXW-34" value="8&lt;br&gt;TE：9&lt;br&gt;TL：12" style="text;html=1;align=center;verticalAlign=middle;resizable=0;points=[];autosize=1;strokeColor=none;fillColor=none;fontSize=16;fontFamily=Helvetica;fontColor=default;" parent="1" vertex="1">
          <mxGeometry x="470" y="415" width="80" height="70" as="geometry" />
        </mxCell>
        <mxCell id="F32oVlwlz_N8rgjbwMXW-35" value="9&lt;br&gt;TE：16&lt;br&gt;TL：16" style="text;html=1;align=center;verticalAlign=middle;resizable=0;points=[];autosize=1;strokeColor=none;fillColor=none;fontSize=16;fontFamily=Helvetica;fontColor=default;" parent="1" vertex="1">
          <mxGeometry x="630" y="175" width="80" height="70" as="geometry" />
        </mxCell>
      </root>
    </mxGraphModel>
  </diagram>
  <diagram id="_tczzzb5rhxz9E5UVuCR" name="系统流程图">
    <mxGraphModel dx="954" dy="657" grid="1" gridSize="10" guides="1" tooltips="1" connect="1" arrows="1" fold="1" page="1" pageScale="1" pageWidth="827" pageHeight="1169" math="0" shadow="0">
      <root>
        <mxCell id="0" />
        <mxCell id="1" parent="0" />
        <mxCell id="P_S2CYmydSKOux9XkJMr-49" value="" style="rounded=0;whiteSpace=wrap;html=1;strokeWidth=2;fillColor=none;strokeColor=#b3b1b1;" vertex="1" parent="1">
          <mxGeometry x="80" y="39.5" width="640" height="480.5" as="geometry" />
        </mxCell>
        <mxCell id="P_S2CYmydSKOux9XkJMr-19" value="" style="rounded=0;whiteSpace=wrap;html=1;strokeWidth=2;" vertex="1" parent="1">
          <mxGeometry x="266" y="47.5" width="50" height="50" as="geometry" />
        </mxCell>
        <mxCell id="P_S2CYmydSKOux9XkJMr-1" value="" style="shape=crossbar;whiteSpace=wrap;html=1;rounded=1;strokeWidth=2;" vertex="1" parent="1">
          <mxGeometry x="90" y="70" width="60" height="20" as="geometry" />
        </mxCell>
        <mxCell id="P_S2CYmydSKOux9XkJMr-2" value="" style="ellipse;whiteSpace=wrap;html=1;aspect=fixed;strokeWidth=2;" vertex="1" parent="1">
          <mxGeometry x="90" y="130" width="60" height="60" as="geometry" />
        </mxCell>
        <mxCell id="P_S2CYmydSKOux9XkJMr-3" value="" style="shape=cylinder3;whiteSpace=wrap;html=1;boundedLbl=1;backgroundOutline=1;size=15;strokeWidth=2;" vertex="1" parent="1">
          <mxGeometry x="411.5" y="50" width="60" height="60" as="geometry" />
        </mxCell>
        <mxCell id="P_S2CYmydSKOux9XkJMr-4" value="" style="shape=display;whiteSpace=wrap;html=1;strokeWidth=2;" vertex="1" parent="1">
          <mxGeometry x="90" y="226" width="60" height="30" as="geometry" />
        </mxCell>
        <mxCell id="P_S2CYmydSKOux9XkJMr-5" value="" style="endArrow=none;html=1;rounded=0;strokeWidth=2;" edge="1" parent="1">
          <mxGeometry width="50" height="50" relative="1" as="geometry">
            <mxPoint x="110" y="216" as="sourcePoint" />
            <mxPoint x="160" y="216" as="targetPoint" />
          </mxGeometry>
        </mxCell>
        <mxCell id="P_S2CYmydSKOux9XkJMr-6" value="" style="rounded=0;whiteSpace=wrap;html=1;strokeWidth=2;" vertex="1" parent="1">
          <mxGeometry x="90" y="300" width="60" height="40" as="geometry" />
        </mxCell>
        <mxCell id="P_S2CYmydSKOux9XkJMr-7" value="" style="rhombus;whiteSpace=wrap;html=1;strokeWidth=2;" vertex="1" parent="1">
          <mxGeometry x="84" y="380" width="70" height="40" as="geometry" />
        </mxCell>
        <mxCell id="P_S2CYmydSKOux9XkJMr-8" value="" style="rounded=1;whiteSpace=wrap;html=1;arcSize=50;strokeWidth=2;" vertex="1" parent="1">
          <mxGeometry x="86" y="460" width="70" height="40" as="geometry" />
        </mxCell>
        <mxCell id="P_S2CYmydSKOux9XkJMr-9" value="&lt;b&gt;&lt;font style=&quot;font-size: 14px;&quot;&gt;网络&lt;/font&gt;&lt;/b&gt;" style="text;html=1;strokeColor=none;fillColor=none;align=center;verticalAlign=middle;whiteSpace=wrap;rounded=0;" vertex="1" parent="1">
          <mxGeometry x="160" y="65" width="60" height="30" as="geometry" />
        </mxCell>
        <mxCell id="P_S2CYmydSKOux9XkJMr-10" value="&lt;b&gt;&lt;font style=&quot;font-size: 14px;&quot;&gt;磁带&lt;/font&gt;&lt;/b&gt;" style="text;html=1;strokeColor=none;fillColor=none;align=center;verticalAlign=middle;whiteSpace=wrap;rounded=0;" vertex="1" parent="1">
          <mxGeometry x="160" y="145" width="60" height="30" as="geometry" />
        </mxCell>
        <mxCell id="P_S2CYmydSKOux9XkJMr-11" value="&lt;b&gt;&lt;font style=&quot;font-size: 14px;&quot;&gt;显示&lt;/font&gt;&lt;/b&gt;" style="text;html=1;strokeColor=none;fillColor=none;align=center;verticalAlign=middle;whiteSpace=wrap;rounded=0;" vertex="1" parent="1">
          <mxGeometry x="160" y="221" width="60" height="30" as="geometry" />
        </mxCell>
        <mxCell id="P_S2CYmydSKOux9XkJMr-12" value="&lt;b&gt;&lt;font style=&quot;font-size: 14px;&quot;&gt;处理&lt;/font&gt;&lt;/b&gt;" style="text;html=1;strokeColor=none;fillColor=none;align=center;verticalAlign=middle;whiteSpace=wrap;rounded=0;" vertex="1" parent="1">
          <mxGeometry x="160" y="305" width="60" height="30" as="geometry" />
        </mxCell>
        <mxCell id="P_S2CYmydSKOux9XkJMr-13" value="&lt;b&gt;&lt;font style=&quot;font-size: 14px;&quot;&gt;决策&lt;/font&gt;&lt;/b&gt;" style="text;html=1;strokeColor=none;fillColor=none;align=center;verticalAlign=middle;whiteSpace=wrap;rounded=0;" vertex="1" parent="1">
          <mxGeometry x="160" y="385" width="60" height="30" as="geometry" />
        </mxCell>
        <mxCell id="P_S2CYmydSKOux9XkJMr-14" value="&lt;b&gt;&lt;font style=&quot;font-size: 14px;&quot;&gt;端点、&lt;br&gt;中断符&lt;/font&gt;&lt;/b&gt;" style="text;html=1;strokeColor=none;fillColor=none;align=center;verticalAlign=middle;whiteSpace=wrap;rounded=0;" vertex="1" parent="1">
          <mxGeometry x="155" y="465" width="90" height="30" as="geometry" />
        </mxCell>
        <mxCell id="P_S2CYmydSKOux9XkJMr-15" value="" style="shape=manualInput;whiteSpace=wrap;html=1;size=13;strokeWidth=2;" vertex="1" parent="1">
          <mxGeometry x="250" y="140" width="60" height="40" as="geometry" />
        </mxCell>
        <mxCell id="P_S2CYmydSKOux9XkJMr-16" value="&lt;b&gt;&lt;font style=&quot;font-size: 14px;&quot;&gt;人工输入&lt;/font&gt;&lt;/b&gt;" style="text;html=1;strokeColor=none;fillColor=none;align=center;verticalAlign=middle;whiteSpace=wrap;rounded=0;" vertex="1" parent="1">
          <mxGeometry x="331" y="145" width="60" height="30" as="geometry" />
        </mxCell>
        <mxCell id="P_S2CYmydSKOux9XkJMr-18" value="" style="verticalLabelPosition=bottom;verticalAlign=top;html=1;shape=card;whiteSpace=wrap;size=20;arcSize=12;strokeWidth=2;" vertex="1" parent="1">
          <mxGeometry x="244" y="62.5" width="64" height="50" as="geometry" />
        </mxCell>
        <mxCell id="P_S2CYmydSKOux9XkJMr-20" value="&lt;b&gt;&lt;font style=&quot;font-size: 14px;&quot;&gt;输入数据&lt;/font&gt;&lt;/b&gt;" style="text;html=1;strokeColor=none;fillColor=none;align=center;verticalAlign=middle;whiteSpace=wrap;rounded=0;" vertex="1" parent="1">
          <mxGeometry x="331" y="65" width="60" height="30" as="geometry" />
        </mxCell>
        <mxCell id="P_S2CYmydSKOux9XkJMr-21" value="" style="verticalLabelPosition=middle;verticalAlign=middle;html=1;shape=trapezoid;perimeter=trapezoidPerimeter;whiteSpace=wrap;size=0.23;arcSize=10;flipV=1;labelPosition=center;align=center;strokeWidth=2;" vertex="1" parent="1">
          <mxGeometry x="247" y="221" width="69" height="35" as="geometry" />
        </mxCell>
        <mxCell id="P_S2CYmydSKOux9XkJMr-22" value="&lt;b&gt;&lt;font style=&quot;font-size: 14px;&quot;&gt;手工操作&lt;/font&gt;&lt;/b&gt;" style="text;html=1;strokeColor=none;fillColor=none;align=center;verticalAlign=middle;whiteSpace=wrap;rounded=0;" vertex="1" parent="1">
          <mxGeometry x="331" y="221" width="60" height="30" as="geometry" />
        </mxCell>
        <mxCell id="P_S2CYmydSKOux9XkJMr-24" value="" style="shape=parallelogram;perimeter=parallelogramPerimeter;whiteSpace=wrap;html=1;fixedSize=1;size=20;strokeWidth=2;" vertex="1" parent="1">
          <mxGeometry x="245" y="310" width="70" height="30" as="geometry" />
        </mxCell>
        <mxCell id="P_S2CYmydSKOux9XkJMr-25" value="&lt;span style=&quot;font-size: 14px;&quot;&gt;&lt;b&gt;读取信息&lt;/b&gt;&lt;/span&gt;" style="text;html=1;strokeColor=none;fillColor=none;align=center;verticalAlign=middle;whiteSpace=wrap;rounded=0;" vertex="1" parent="1">
          <mxGeometry x="331" y="305" width="60" height="30" as="geometry" />
        </mxCell>
        <mxCell id="P_S2CYmydSKOux9XkJMr-26" value="" style="rounded=0;whiteSpace=wrap;html=1;strokeWidth=2;" vertex="1" parent="1">
          <mxGeometry x="421.5" y="216" width="40" height="40" as="geometry" />
        </mxCell>
        <mxCell id="P_S2CYmydSKOux9XkJMr-27" value="&lt;span style=&quot;font-size: 14px;&quot;&gt;&lt;b&gt;辅助操作&lt;/b&gt;&lt;/span&gt;" style="text;html=1;strokeColor=none;fillColor=none;align=center;verticalAlign=middle;whiteSpace=wrap;rounded=0;" vertex="1" parent="1">
          <mxGeometry x="481.5" y="221" width="60" height="30" as="geometry" />
        </mxCell>
        <mxCell id="P_S2CYmydSKOux9XkJMr-28" value="&lt;span style=&quot;font-size: 14px;&quot;&gt;&lt;b&gt;磁盘&lt;/b&gt;&lt;/span&gt;" style="text;html=1;strokeColor=none;fillColor=none;align=center;verticalAlign=middle;whiteSpace=wrap;rounded=0;" vertex="1" parent="1">
          <mxGeometry x="467.5" y="65" width="60" height="30" as="geometry" />
        </mxCell>
        <mxCell id="P_S2CYmydSKOux9XkJMr-29" value="" style="shape=dataStorage;whiteSpace=wrap;html=1;fixedSize=1;size=10;strokeWidth=2;" vertex="1" parent="1">
          <mxGeometry x="409" y="145" width="65" height="30" as="geometry" />
        </mxCell>
        <mxCell id="P_S2CYmydSKOux9XkJMr-30" value="&lt;span style=&quot;font-size: 14px;&quot;&gt;&lt;b&gt;联机存储&lt;/b&gt;&lt;/span&gt;" style="text;html=1;strokeColor=none;fillColor=none;align=center;verticalAlign=middle;whiteSpace=wrap;rounded=0;" vertex="1" parent="1">
          <mxGeometry x="481.5" y="145" width="60" height="30" as="geometry" />
        </mxCell>
        <mxCell id="P_S2CYmydSKOux9XkJMr-34" value="" style="endArrow=none;html=1;rounded=0;strokeWidth=2;" edge="1" parent="1">
          <mxGeometry width="50" height="50" relative="1" as="geometry">
            <mxPoint x="411.5" y="319.5" as="sourcePoint" />
            <mxPoint x="471.5" y="319.5" as="targetPoint" />
          </mxGeometry>
        </mxCell>
        <mxCell id="P_S2CYmydSKOux9XkJMr-35" value="&lt;span style=&quot;font-size: 14px;&quot;&gt;&lt;b&gt;处理流程线&lt;/b&gt;&lt;/span&gt;" style="text;html=1;strokeColor=none;fillColor=none;align=center;verticalAlign=middle;whiteSpace=wrap;rounded=0;" vertex="1" parent="1">
          <mxGeometry x="481.5" y="305" width="80" height="30" as="geometry" />
        </mxCell>
        <mxCell id="P_S2CYmydSKOux9XkJMr-37" value="" style="triangle;whiteSpace=wrap;html=1;dashed=0;direction=south;strokeWidth=2;" vertex="1" parent="1">
          <mxGeometry x="570" y="52.5" width="60" height="60" as="geometry" />
        </mxCell>
        <mxCell id="P_S2CYmydSKOux9XkJMr-39" value="" style="endArrow=none;html=1;rounded=0;strokeWidth=2;" edge="1" parent="1">
          <mxGeometry width="50" height="50" relative="1" as="geometry">
            <mxPoint x="435" y="420" as="sourcePoint" />
            <mxPoint x="469" y="380" as="targetPoint" />
            <Array as="points">
              <mxPoint x="435.5" y="420" />
            </Array>
          </mxGeometry>
        </mxCell>
        <mxCell id="P_S2CYmydSKOux9XkJMr-41" value="" style="endArrow=none;html=1;rounded=0;strokeWidth=2;" edge="1" parent="1">
          <mxGeometry width="50" height="50" relative="1" as="geometry">
            <mxPoint x="435" y="420" as="sourcePoint" />
            <mxPoint x="439" y="390" as="targetPoint" />
          </mxGeometry>
        </mxCell>
        <mxCell id="P_S2CYmydSKOux9XkJMr-42" value="" style="endArrow=none;html=1;rounded=0;strokeWidth=2;" edge="1" parent="1">
          <mxGeometry width="50" height="50" relative="1" as="geometry">
            <mxPoint x="409" y="430" as="sourcePoint" />
            <mxPoint x="439" y="390" as="targetPoint" />
          </mxGeometry>
        </mxCell>
        <mxCell id="P_S2CYmydSKOux9XkJMr-45" value="&lt;span style=&quot;font-size: 14px;&quot;&gt;&lt;b&gt;信息流向线&lt;/b&gt;&lt;/span&gt;" style="text;html=1;strokeColor=none;fillColor=none;align=center;verticalAlign=middle;whiteSpace=wrap;rounded=0;" vertex="1" parent="1">
          <mxGeometry x="481.5" y="385" width="80" height="30" as="geometry" />
        </mxCell>
        <mxCell id="P_S2CYmydSKOux9XkJMr-46" value="" style="shape=document;whiteSpace=wrap;html=1;boundedLbl=1;strokeWidth=2;" vertex="1" parent="1">
          <mxGeometry x="570" y="135" width="63" height="50" as="geometry" />
        </mxCell>
        <mxCell id="P_S2CYmydSKOux9XkJMr-47" value="&lt;span style=&quot;font-size: 14px;&quot;&gt;&lt;b&gt;报表、&lt;br&gt;单据、&lt;br&gt;文件&amp;nbsp; &amp;nbsp;&lt;/b&gt;&lt;/span&gt;" style="text;html=1;strokeColor=none;fillColor=none;align=center;verticalAlign=middle;whiteSpace=wrap;rounded=0;" vertex="1" parent="1">
          <mxGeometry x="640" y="140" width="60" height="30" as="geometry" />
        </mxCell>
        <mxCell id="P_S2CYmydSKOux9XkJMr-48" value="&lt;span style=&quot;font-size: 14px;&quot;&gt;&lt;b&gt;脱机存储&lt;/b&gt;&lt;/span&gt;" style="text;html=1;strokeColor=none;fillColor=none;align=center;verticalAlign=middle;whiteSpace=wrap;rounded=0;" vertex="1" parent="1">
          <mxGeometry x="650" y="65" width="60" height="30" as="geometry" />
        </mxCell>
        <mxCell id="P_S2CYmydSKOux9XkJMr-50" value="" style="rounded=0;whiteSpace=wrap;html=1;strokeWidth=2;fillColor=none;strokeColor=#b3b1b1;" vertex="1" parent="1">
          <mxGeometry x="80" y="39.5" width="640" height="80.5" as="geometry" />
        </mxCell>
        <mxCell id="P_S2CYmydSKOux9XkJMr-51" value="" style="rounded=0;whiteSpace=wrap;html=1;strokeWidth=2;fillColor=none;strokeColor=#b3b1b1;" vertex="1" parent="1">
          <mxGeometry x="80" y="119.75" width="640" height="80.5" as="geometry" />
        </mxCell>
        <mxCell id="P_S2CYmydSKOux9XkJMr-52" value="" style="rounded=0;whiteSpace=wrap;html=1;strokeWidth=2;fillColor=none;strokeColor=#b3b1b1;" vertex="1" parent="1">
          <mxGeometry x="80" y="200.25" width="640" height="80.5" as="geometry" />
        </mxCell>
        <mxCell id="P_S2CYmydSKOux9XkJMr-53" value="" style="rounded=0;whiteSpace=wrap;html=1;strokeWidth=2;fillColor=none;strokeColor=#b3b1b1;" vertex="1" parent="1">
          <mxGeometry x="80" y="280.75" width="640" height="80.5" as="geometry" />
        </mxCell>
        <mxCell id="P_S2CYmydSKOux9XkJMr-54" value="" style="rounded=0;whiteSpace=wrap;html=1;strokeWidth=2;fillColor=none;strokeColor=#b3b1b1;" vertex="1" parent="1">
          <mxGeometry x="80" y="361.25" width="640" height="80.5" as="geometry" />
        </mxCell>
        <mxCell id="P_S2CYmydSKOux9XkJMr-56" value="" style="rounded=0;whiteSpace=wrap;html=1;strokeWidth=2;fillColor=none;strokeColor=#B4B1B1;" vertex="1" parent="1">
          <mxGeometry x="80" y="40" width="160" height="480" as="geometry" />
        </mxCell>
        <mxCell id="P_S2CYmydSKOux9XkJMr-57" value="" style="rounded=0;whiteSpace=wrap;html=1;strokeWidth=2;fillColor=none;strokeColor=#B3B1B1;" vertex="1" parent="1">
          <mxGeometry x="240" y="39.5" width="160" height="480" as="geometry" />
        </mxCell>
        <mxCell id="P_S2CYmydSKOux9XkJMr-58" value="" style="rounded=0;whiteSpace=wrap;html=1;strokeWidth=2;fillColor=none;strokeColor=#b3b1b1;" vertex="1" parent="1">
          <mxGeometry x="400" y="39.5" width="160" height="480" as="geometry" />
        </mxCell>
      </root>
    </mxGraphModel>
  </diagram>
</mxfile>
